RobotoSerifTextWide-Super 05h.ufo
<glyph name="two" format="2">
  <advance width="664"/>
  <unicode hex="0032"/>
  <outline>
    <contour>
      <point x="383" y="145" type="line" smooth="yes"/>
      <point x="474" y="145"/>
      <point x="505" y="149"/>
      <point x="513" y="185" type="curve" smooth="yes"/>
      <point x="522" y="235" type="line"/>
      <point x="631" y="235" type="line"/>
      <point x="631" y="0" type="line"/>
      <point x="22" y="0" type="line"/>
      <point x="22" y="158" type="line"/>
      <point x="209" y="247"/>
      <point x="344" y="302"/>
      <point x="344" y="439" type="curve" smooth="yes"/>
      <point x="344" y="500"/>
      <point x="324" y="529"/>
      <point x="277" y="529" type="curve" smooth="yes"/>
      <point x="236.5731707317073" y="529.0"/>
      <point x="209.21029684469065" y="511.29688966309266"/>
      <point x="192" y="487" type="curve"/>
      <point x="186.88287718007928" y="495.18739651187315"/>
      <point x="185.52977130218622" y="540.7578910210827"/>
      <point x="232" y="544" type="curve"/>
      <point x="232" y="413" type="line"/>
      <point x="27" y="413" type="line"/>
      <point x="27" y="548" type="line"/>
      <point x="83" y="585"/>
      <point x="184.0" y="618.0"/>
      <point x="316" y="618" type="curve" smooth="yes"/>
      <point x="514" y="618"/>
      <point x="615" y="550"/>
      <point x="615" y="439" type="curve" smooth="yes"/>
      <point x="615" y="279"/>
      <point x="351" y="189"/>
      <point x="141" y="122" type="curve"/>
      <point x="118" y="118"/>
      <point x="125" y="139"/>
      <point x="126" y="145" type="curve"/>
    </contour>
  </outline>
</glyph>
<glyph name="nine" format="2">
  <advance width="664"/>
  <unicode hex="0039"/>
  <outline>
    <contour>
      <point x="75" y="-19" type="line"/>
      <point x="262" y="7"/>
      <point x="379" y="110"/>
      <point x="379" y="338" type="curve" smooth="yes"/>
      <point x="379" y="498"/>
      <point x="364" y="534"/>
      <point x="332" y="534" type="curve" smooth="yes"/>
      <point x="298" y="534"/>
      <point x="284" y="496"/>
      <point x="284" y="393" type="curve" smooth="yes"/>
      <point x="284" y="310"/>
      <point x="290" y="262"/>
      <point x="337" y="262" type="curve" smooth="yes"/>
      <point x="369" y="262"/>
      <point x="390" y="286"/>
      <point x="421" y="348" type="curve"/>
      <point x="426" y="277" type="line"/>
      <point x="407" y="229"/>
      <point x="362" y="177"/>
      <point x="256" y="177" type="curve" smooth="yes"/>
      <point x="113" y="177"/>
      <point x="15" y="249"/>
      <point x="15" y="387" type="curve" smooth="yes"/>
      <point x="15" y="530"/>
      <point x="139" y="619"/>
      <point x="325" y="619" type="curve" smooth="yes"/>
      <point x="531" y="619"/>
      <point x="645" y="529"/>
      <point x="645" y="330" type="curve" smooth="yes"/>
      <point x="645" y="90"/>
      <point x="436" y="-76"/>
      <point x="92" y="-104" type="curve"/>
    </contour>
  </outline>
</glyph>
<glyph name="at" format="2">
  <advance width="1063"/>
  <unicode hex="0040"/>
  <outline>
    <contour>
      <point x="548" y="-63" type="curve" smooth="yes"/>
      <point x="307.0" y="-63.0"/>
      <point x="132.0" y="52.23178807947019"/>
      <point x="132" y="237" type="curve" smooth="yes"/>
      <point x="132" y="439"/>
      <point x="311" y="585"/>
      <point x="571" y="585" type="curve" smooth="yes"/>
      <point x="794" y="585"/>
      <point x="932" y="475"/>
      <point x="932" y="330" type="curve" smooth="yes"/>
      <point x="932" y="204"/>
      <point x="861" y="135"/>
      <point x="811" y="135" type="curve" smooth="yes"/>
      <point x="783" y="135"/>
      <point x="778" y="149"/>
      <point x="784" y="185" type="curve" smooth="yes"/>
      <point x="835" y="470" type="line"/>
      <point x="655" y="470" type="line"/>
      <point x="611" y="389" type="line"/>
      <point x="595" y="383" type="line"/>
      <point x="555" y="149" type="line"/>
      <point x="561" y="144"/>
      <point x="579" y="146"/>
      <point x="580" y="149" type="curve"/>
      <point x="599" y="94"/>
      <point x="657" y="53"/>
      <point x="768" y="53" type="curve" smooth="yes"/>
      <point x="930" y="53"/>
      <point x="1038" y="153"/>
      <point x="1038" y="333" type="curve" smooth="yes"/>
      <point x="1038" y="522"/>
      <point x="856" y="673"/>
      <point x="569" y="673" type="curve" smooth="yes"/>
      <point x="251" y="673"/>
      <point x="25" y="495"/>
      <point x="25" y="237" type="curve" smooth="yes"/>
      <point x="25" y="-11"/>
      <point x="252" y="-153"/>
      <point x="550" y="-153" type="curve" smooth="yes"/>
      <point x="685" y="-153"/>
      <point x="813" y="-126"/>
      <point x="891" y="-93" type="curve"/>
      <point x="869" y="-4" type="line"/>
      <point x="781.6702154272393" y="-38.733437045984374"/>
      <point x="675.2074303405573" y="-63.0"/>
    </contour>
    <contour>
      <point x="436" y="47" type="curve" smooth="yes"/>
      <point x="540" y="47"/>
      <point x="592" y="107"/>
      <point x="643" y="225" type="curve"/>
      <point x="609" y="275" type="line"/>
      <point x="570" y="177"/>
      <point x="538" y="130"/>
      <point x="506" y="130" type="curve" smooth="yes"/>
      <point x="478" y="130"/>
      <point x="466" y="154"/>
      <point x="466" y="213" type="curve" smooth="yes"/>
      <point x="466" y="292"/>
      <point x="496" y="397"/>
      <point x="551" y="397" type="curve" smooth="yes"/>
      <point x="583" y="397"/>
      <point x="602" y="369"/>
      <point x="624" y="286" type="curve"/>
      <point x="658" y="329" type="line"/>
      <point x="634" y="434"/>
      <point x="583" y="476"/>
      <point x="491" y="476" type="curve" smooth="yes"/>
      <point x="329" y="476"/>
      <point x="240" y="350"/>
      <point x="240" y="230" type="curve" smooth="yes"/>
      <point x="240" y="108"/>
      <point x="326" y="47"/>
    </contour>
  </outline>
</glyph>
<glyph name="t" format="2">
  <advance width="509"/>
  <unicode hex="0074"/>
  <anchor x="185.7" y="675.0" name="top"/>
  <anchor x="347.08000000000004" y="681.0" name="right"/>
  <anchor x="289.9" y="0.0" name="bottom"/>
  <outline>
    <contour>
      <point x="353" y="181" type="curve" smooth="yes"/>
      <point x="353" y="652" type="line"/>
      <point x="69" y="652" type="line"/>
      <point x="69" y="500" type="line"/>
      <point x="62" y="492" type="line"/>
      <point x="62" y="175" type="line" smooth="yes"/>
      <point x="62" y="37"/>
      <point x="171" y="-10"/>
      <point x="336" y="-10" type="curve" smooth="yes"/>
      <point x="414.45161290322585" y="-10.0"/>
      <point x="470.0981881111295" y="1.0436391605019981"/>
      <point x="488" y="9" type="curve"/>
      <point x="488" y="96" type="line"/>
      <point x="479.1298995187541" y="94.02886655972313"/>
      <point x="450.7205882352941" y="86.0"/>
      <point x="423" y="86" type="curve" smooth="yes"/>
      <point x="376" y="86"/>
      <point x="353" y="106"/>
    </contour>
    <contour>
      <point x="69" y="547" type="line"/>
      <point x="69" y="515"/>
      <point x="40" y="508"/>
      <point x="3" y="508" type="curve" smooth="yes"/>
      <point x="0" y="508" type="line"/>
      <point x="0" y="433" type="line"/>
      <point x="113" y="433" type="line"/>
    </contour>
    <contour>
      <point x="231" y="433" type="line"/>
      <point x="488" y="433" type="line"/>
      <point x="488" y="513" type="line"/>
      <point x="231" y="513" type="line"/>
    </contour>
  </outline>
</glyph>
<glyph name="germandbls" format="2">
  <advance width="835"/>
  <unicode hex="00DF"/>
  <outline>
    <contour>
      <point x="2" y="513" type="line"/>
      <point x="2" y="433" type="line"/>
      <point x="161" y="433" type="line"/>
      <point x="161" y="513" type="line"/>
    </contour>
    <contour>
      <point x="21" y="0" type="line"/>
      <point x="375" y="0" type="line"/>
      <point x="375" y="565" type="line" smooth="yes"/>
      <point x="375" y="636.25"/>
      <point x="390.73333333333335" y="660.0"/>
      <point x="434" y="660" type="curve" smooth="yes"/>
      <point x="469.6862745098039" y="660.0"/>
      <point x="486" y="636"/>
      <point x="486" y="585" type="curve" smooth="yes"/>
      <point x="486" y="499"/>
      <point x="456" y="468"/>
      <point x="415" y="456" type="curve"/>
      <point x="415" y="381" type="line"/>
      <point x="421" y="380" type="line" smooth="yes"/>
      <point x="479" y="370"/>
      <point x="514" y="316"/>
      <point x="514" y="207" type="curve" smooth="yes"/>
      <point x="514" y="101"/>
      <point x="484" y="78"/>
      <point x="449" y="78" type="curve" smooth="yes"/>
      <point x="434" y="78"/>
      <point x="420" y="84"/>
      <point x="415" y="86" type="curve"/>
      <point x="415" y="9" type="line"/>
      <point x="442.81476098812504" y="-0.9338432100446603"/>
      <point x="492.4179104477612" y="-10.0"/>
      <point x="548" y="-10" type="curve" smooth="yes"/>
      <point x="712.6259541984733" y="-10.0"/>
      <point x="811.0" y="63"/>
      <point x="811" y="201" type="curve" smooth="yes"/>
      <point x="811" y="329"/>
      <point x="678" y="428"/>
      <point x="480" y="443" type="curve"/>
      <point x="457" y="424" type="line"/>
      <point x="616.0003163804446" y="421.9999960203718"/>
      <point x="750.0" y="476.65"/>
      <point x="750" y="586" type="curve" smooth="yes"/>
      <point x="750.0" y="688.7317073170732"/>
      <point x="633.0" y="748.0"/>
      <point x="429" y="748" type="curve" smooth="yes"/>
      <point x="175.0" y="748.0"/>
      <point x="84" y="670.6168224299065"/>
      <point x="84" y="541" type="curve" smooth="yes"/>
      <point x="84" y="102" type="line" smooth="yes"/>
      <point x="84" y="80"/>
      <point x="66.70588235294117" y="71"/>
      <point x="35" y="71" type="curve" smooth="yes"/>
      <point x="21" y="71" type="line"/>
    </contour>
  </outline>
</glyph>
<glyph name="Aogonek" format="2">
  <advance width="890"/>
  <unicode hex="0104"/>
  <outline>
    <contour>
      <point x="187" y="309" type="line"/>
      <point x="187" y="224" type="line"/>
      <point x="495" y="224" type="line"/>
      <point x="495" y="309" type="line"/>
    </contour>
    <contour>
      <point x="306" y="642" type="line"/>
      <point x="538" y="0" type="line"/>
      <point x="876" y="0" type="line"/>
      <point x="876" y="76" type="line"/>
      <point x="871" y="76" type="line"/>
      <point x="847" y="76"/>
      <point x="833" y="81"/>
      <point x="824" y="104" type="curve" smooth="yes"/>
      <point x="594" y="710" type="line"/>
      <point x="294" y="710" type="line"/>
      <point x="70" y="119" type="line" smooth="yes"/>
      <point x="57" y="85"/>
      <point x="45" y="76"/>
      <point x="20" y="76" type="curve"/>
      <point x="14" y="76" type="line"/>
      <point x="14" y="0" type="line"/>
      <point x="249" y="0" type="line"/>
      <point x="249" y="76" type="line"/>
      <point x="235" y="76" type="line" smooth="yes"/>
      <point x="209" y="76"/>
      <point x="184" y="83"/>
      <point x="184" y="94" type="curve"/>
      <point x="356" y="585" type="line"/>
    </contour>
    <contour>
      <point x="615" y="42" type="line"/>
      <point x="419" y="-3"/>
      <point x="324" y="-53"/>
      <point x="324" y="-136" type="curve" smooth="yes"/>
      <point x="324" y="-205"/>
      <point x="382" y="-244"/>
      <point x="489" y="-244" type="curve" smooth="yes"/>
      <point x="589" y="-244"/>
      <point x="646" y="-216"/>
      <point x="688" y="-175" type="curve"/>
      <point x="641" y="-118" type="line"/>
      <point x="628" y="-131"/>
      <point x="600" y="-148"/>
      <point x="573" y="-148" type="curve" smooth="yes"/>
      <point x="548" y="-148"/>
      <point x="532" y="-135"/>
      <point x="532" y="-109" type="curve" smooth="yes"/>
      <point x="532" y="-71"/>
      <point x="570" y="-26"/>
      <point x="667" y="14" type="curve"/>
    </contour>
  </outline>
</glyph>
<glyph name="Euro" format="2">
  <advance width="664"/>
  <unicode hex="20AC"/>
  <outline>
    <contour>
      <point x="11" y="471" type="line"/>
      <point x="11" y="383" type="line"/>
      <point x="519" y="383" type="line"/>
      <point x="519" y="471" type="line"/>
    </contour>
    <contour>
      <point x="11" y="315" type="line"/>
      <point x="11" y="227" type="line"/>
      <point x="471" y="227" type="line"/>
      <point x="471" y="315" type="line"/>
    </contour>
    <contour>
      <point x="404" y="-10" type="curve" smooth="yes"/>
      <point x="552.426923076923" y="-10.0"/>
      <point x="624" y="68"/>
      <point x="663" y="166" type="curve"/>
      <point x="565" y="210" type="line"/>
      <point x="539.0023757679534" y="138.74725210476097"/>
      <point x="505.51724137931035" y="93.0"/>
      <point x="450" y="93" type="curve" smooth="yes"/>
      <point x="379.3069306930693" y="93.0"/>
      <point x="348.0" y="145.98876404494382"/>
      <point x="348" y="355" type="curve" smooth="yes"/>
      <point x="348" y="558"/>
      <point x="366" y="626"/>
      <point x="426" y="626" type="curve" smooth="yes"/>
      <point x="447" y="626"/>
      <point x="463" y="613"/>
      <point x="472" y="599" type="curve"/>
      <point x="509" y="613"/>
      <point x="516" y="629"/>
      <point x="443" y="644" type="curve"/>
      <point x="443" y="539" type="line"/>
      <point x="651" y="539" type="line"/>
      <point x="651" y="675" type="line"/>
      <point x="625" y="689"/>
      <point x="553" y="720"/>
      <point x="430" y="720" type="curve" smooth="yes"/>
      <point x="219" y="720"/>
      <point x="63" y="611"/>
      <point x="63" y="355" type="curve" smooth="yes"/>
      <point x="63" y="102"/>
      <point x="200" y="-10"/>
    </contour>
  </outline>
</glyph>
<glyph name="approxequal" format="2">
  <advance width="664"/>
  <unicode hex="2248"/>
  <outline>
    <contour>
      <point x="430" y="333" type="curve" smooth="yes"/>
      <point x="526" y="333"/>
      <point x="579" y="428"/>
      <point x="608" y="541" type="curve"/>
      <point x="484" y="570" type="line"/>
      <point x="475" y="536"/>
      <point x="462" y="494"/>
      <point x="422" y="494" type="curve" smooth="yes"/>
      <point x="369.72340425531917" y="494.0"/>
      <point x="317.4468085106383" y="565.0"/>
      <point x="233" y="565" type="curve" smooth="yes"/>
      <point x="125" y="565"/>
      <point x="80" y="480"/>
      <point x="56" y="362" type="curve"/>
      <point x="181" y="333" type="line"/>
      <point x="188" y="363"/>
      <point x="198" y="404"/>
      <point x="235" y="404" type="curve" smooth="yes"/>
      <point x="282.24226804123714" y="404.0"/>
      <point x="345.5670103092783" y="333.0"/>
    </contour>
    <contour>
      <point x="430" y="73" type="curve" smooth="yes"/>
      <point x="526" y="73"/>
      <point x="579" y="168"/>
      <point x="608" y="281" type="curve"/>
      <point x="484" y="310" type="line"/>
      <point x="475" y="276"/>
      <point x="462" y="234"/>
      <point x="422" y="234" type="curve" smooth="yes"/>
      <point x="369.72340425531917" y="234.0"/>
      <point x="317.4468085106383" y="305.0"/>
      <point x="233" y="305" type="curve" smooth="yes"/>
      <point x="125" y="305"/>
      <point x="80" y="220"/>
      <point x="56" y="102" type="curve"/>
      <point x="181" y="73" type="line"/>
      <point x="188" y="103"/>
      <point x="198" y="144"/>
      <point x="235" y="144" type="curve" smooth="yes"/>
      <point x="282.24226804123714" y="144.0"/>
      <point x="345.5670103092783" y="73.0"/>
    </contour>
  </outline>
</glyph>
<glyph name="breve.uc" format="2">
  <advance width="588"/>
  <anchor x="294.0" y="694.0" name="_top"/>
  <outline>
    <contour>
      <point x="293" y="745" type="curve" smooth="yes"/>
      <point x="174" y="745.0"/>
      <point x="91" y="802"/>
      <point x="86" y="913" type="curve"/>
      <point x="214" y="913" type="line"/>
      <point x="218" y="880" name="inserted"/>
      <point x="245" y="863.0"/>
      <point x="296" y="863" type="curve" smooth="yes"/>
      <point x="347" y="863.0"/>
      <point x="372" y="875"/>
      <point x="376" y="913" type="curve"/>
      <point x="499" y="913" type="line"/>
      <point x="492" y="802"/>
      <point x="411" y="745.0"/>
    </contour>
  </outline>
</glyph>
<glyph name="breve_hook" format="2">
  <advance width="606"/>
  <anchor x="303.0" y="525.0" name="_top"/>
  <outline>
    <contour>
      <point x="149.0" y="840.0" type="line"/>
      <point x="154.0" y="882.0"/>
      <point x="196.0" y="926.0"/>
      <point x="313.0" y="926.0" type="curve" smooth="yes"/>
      <point x="416.0" y="926.0"/>
      <point x="471.0" y="894.0"/>
      <point x="471.0" y="846.0" type="curve" smooth="yes"/>
      <point x="471.0" y="791.0"/>
      <point x="413.0" y="767.0"/>
      <point x="325.0" y="761.0" type="curve"/>
      <point x="359.0" y="787.0" type="line"/>
      <point x="359.0" y="737.0" type="line"/>
      <point x="247.0" y="737.0" type="line"/>
      <point x="247.0" y="800.0" type="line"/>
      <point x="308.0" y="803.0"/>
      <point x="332.0" y="816.0"/>
      <point x="332.0" y="841.0" type="curve" smooth="yes"/>
      <point x="332.0" y="856.0"/>
      <point x="324.0" y="866.0"/>
      <point x="303.0" y="866.0" type="curve" smooth="yes"/>
      <point x="283.0" y="866.0"/>
      <point x="271.0" y="856.0"/>
      <point x="268.0" y="840.0" type="curve"/>
    </contour>
    <contour>
      <point x="303.0" y="560.0" type="curve" smooth="yes"/>
      <point x="176.0" y="560.0"/>
      <point x="90.0" y="617.0"/>
      <point x="93.0" y="727.0" type="curve"/>
      <point x="220.0" y="727.0" type="line"/>
      <point x="229.0" y="688.0"/>
      <point x="262.0" y="674.0"/>
      <point x="306.0" y="674.0" type="curve" smooth="yes"/>
      <point x="350.0" y="674.0"/>
      <point x="382.0" y="685.0"/>
      <point x="390.0" y="727.0" type="curve"/>
      <point x="511.0" y="727.0" type="line"/>
      <point x="515.0" y="617.0"/>
      <point x="427.0" y="560.0"/>
    </contour>
  </outline>
</glyph>
<glyph name="breve_tilde.uc" format="2">
  <advance width="595"/>
  <anchor x="297.0" y="694.0" name="_top"/>
  <outline>
    <contour>
      <point x="376" y="941" type="curve" smooth="yes"/>
      <point x="314" y="941.0"/>
      <point x="243" y="982.0"/>
      <point x="228" y="982" type="curve" smooth="yes"/>
      <point x="205" y="982.0" name="inserted"/>
      <point x="189" y="966"/>
      <point x="181" y="934" type="curve"/>
      <point x="80" y="964" type="line"/>
      <point x="100" y="1054" name="inserted"/>
      <point x="149" y="1097.0"/>
      <point x="225" y="1097" type="curve" smooth="yes"/>
      <point x="281" y="1097.0"/>
      <point x="351" y="1056.0"/>
      <point x="374" y="1056" type="curve" smooth="yes"/>
      <point x="398" y="1056.0" name="inserted"/>
      <point x="414" y="1073"/>
      <point x="425" y="1105" type="curve"/>
      <point x="525" y="1073" type="line"/>
      <point x="504" y="990"/>
      <point x="452" y="941.0"/>
    </contour>
    <contour>
      <point x="298" y="758" type="curve" smooth="yes"/>
      <point x="180" y="758.0"/>
      <point x="96" y="810"/>
      <point x="91" y="905" type="curve"/>
      <point x="219" y="905" type="line"/>
      <point x="223" y="873" name="inserted"/>
      <point x="250" y="856.0"/>
      <point x="301" y="856" type="curve" smooth="yes"/>
      <point x="353" y="856.0"/>
      <point x="377" y="869"/>
      <point x="382" y="905" type="curve"/>
      <point x="504" y="905" type="line"/>
      <point x="499" y="810"/>
      <point x="415" y="758.0"/>
    </contour>
  </outline>
</glyph>
<glyph name="circumflex_hook.uc" format="2">
  <advance width="607"/>
  <anchor x="291" y="749.0" name="_top"/>
  <outline>
    <contour>
      <point x="441" y="940" type="line"/>
      <point x="445" y="983"/>
      <point x="488" y="1024"/>
      <point x="605" y="1024" type="curve" smooth="yes"/>
      <point x="708" y="1024"/>
      <point x="763" y="994"/>
      <point x="763" y="946" type="curve" smooth="yes"/>
      <point x="763" y="891"/>
      <point x="705" y="869"/>
      <point x="617" y="863" type="curve"/>
      <point x="651" y="890" type="line"/>
      <point x="651" y="839" type="line"/>
      <point x="539" y="839" type="line"/>
      <point x="539" y="900" type="line"/>
      <point x="600" y="903"/>
      <point x="624" y="916"/>
      <point x="624" y="941" type="curve" smooth="yes"/>
      <point x="624" y="957"/>
      <point x="615" y="966"/>
      <point x="594" y="966" type="curve" smooth="yes"/>
      <point x="575" y="966"/>
      <point x="563" y="957"/>
      <point x="560" y="940" type="curve"/>
    </contour>
    <component base="circumflex.uc" xOffset="1"/>
  </outline>
</glyph>
<glyph name="circumflex_tilde.uc" format="2">
  <advance width="595"/>
  <anchor x="297.0" y="694.0" name="_top"/>
  <outline>
    <contour>
      <point x="403.0" y="891.0" type="line"/>
      <point x="531.0" y="776.0" type="line"/>
      <point x="531.0" y="749.0" type="line"/>
      <point x="395.0" y="749.0" type="line"/>
      <point x="208.0" y="827.0" type="line"/>
      <point x="376.0" y="827.0" type="line"/>
      <point x="188.0" y="749.0" type="line"/>
      <point x="63.0" y="749.0" type="line"/>
      <point x="63.0" y="776.0" type="line"/>
      <point x="192.0" y="891.0" type="line"/>
    </contour>
    <contour>
      <point x="376" y="941" type="curve" smooth="yes"/>
      <point x="314" y="941.0"/>
      <point x="243" y="982.0"/>
      <point x="228" y="982" type="curve" smooth="yes"/>
      <point x="205" y="982.0" name="inserted"/>
      <point x="189" y="966"/>
      <point x="181" y="934" type="curve"/>
      <point x="80" y="964" type="line"/>
      <point x="100" y="1054" name="inserted"/>
      <point x="149" y="1097.0"/>
      <point x="225" y="1097" type="curve" smooth="yes"/>
      <point x="281" y="1097.0"/>
      <point x="351" y="1056.0"/>
      <point x="374" y="1056" type="curve" smooth="yes"/>
      <point x="398" y="1056.0" name="inserted"/>
      <point x="414" y="1073"/>
      <point x="425" y="1105" type="curve"/>
      <point x="525" y="1073" type="line"/>
      <point x="504" y="990"/>
      <point x="452" y="941.0"/>
    </contour>
  </outline>
</glyph>
<glyph name="colonsign" format="2">
  <advance width="664"/>
  <outline>
    <contour>
      <point x="416" y="717" type="curve" smooth="yes"/>
      <point x="196" y="717.0"/>
      <point x="23.0" y="600.0"/>
      <point x="23" y="355" type="curve" smooth="yes"/>
      <point x="23.0" y="110.0"/>
      <point x="172.068870523416" y="-7.0"/>
      <point x="379" y="-7" type="curve" smooth="yes"/>
      <point x="532.9772727272727" y="-7.0"/>
      <point x="617.924410835447" y="72.75669737659518"/>
      <point x="650" y="176" type="curve"/>
      <point x="560" y="215" type="line"/>
      <point x="537.964917595569" y="141.8835902034789"/>
      <point x="498.8607594936709" y="84.0"/>
      <point x="399" y="84" type="curve" smooth="yes"/>
      <point x="294.12582781456956" y="84.0"/>
      <point x="251.0" y="119.0"/>
      <point x="251" y="355" type="curve" smooth="yes"/>
      <point x="251" y="551"/>
      <point x="294" y="625"/>
      <point x="425" y="625" type="curve" smooth="yes"/>
      <point x="495" y="625"/>
      <point x="567" y="617"/>
      <point x="598" y="610" type="curve"/>
      <point x="601" y="620"/>
      <point x="526" y="643"/>
      <point x="489" y="630" type="curve"/>
      <point x="489" y="517" type="line"/>
      <point x="657" y="517" type="line"/>
      <point x="657" y="670" type="line"/>
      <point x="637.2647297199062" y="683.8146891960656"/>
      <point x="546.0" y="717.0"/>
    </contour>
    <contour>
      <point x="359" y="790" type="line"/>
      <point x="229" y="-120" type="line"/>
      <point x="294" y="-120" type="line"/>
      <point x="425" y="790" type="line"/>
    </contour>
    <contour>
      <point x="495" y="790" type="line"/>
      <point x="364" y="-120" type="line"/>
      <point x="430" y="-120" type="line"/>
      <point x="560" y="790" type="line"/>
    </contour>
  </outline>
</glyph>
<glyph name="f_f.short" format="2">
  <advance width="935"/>
  <outline>
    <contour>
      <point x="2" y="513" type="line"/>
      <point x="2" y="433" type="line"/>
      <point x="492" y="433" type="line"/>
      <point x="492" y="513" type="line"/>
    </contour>
    <contour>
      <point x="374" y="79" type="curve"/>
      <point x="374" y="580" type="line" smooth="yes"/>
      <point x="374" y="634"/>
      <point x="396.0" y="650.0"/>
      <point x="431" y="650" type="curve" smooth="yes"/>
      <point x="450" y="650.0"/>
      <point x="467" y="643"/>
      <point x="471" y="641" type="curve"/>
      <point x="471" y="725" type="line"/>
      <point x="456" y="731"/>
      <point x="412" y="737"/>
      <point x="361" y="737" type="curve" smooth="yes"/>
      <point x="207.0" y="737.0"/>
      <point x="84" y="686"/>
      <point x="84" y="537" type="curve" smooth="yes"/>
      <point x="84" y="102" type="line" smooth="yes"/>
      <point x="84" y="80"/>
      <point x="67" y="71"/>
      <point x="35" y="71" type="curve" smooth="yes"/>
      <point x="21" y="71" type="line"/>
      <point x="21" y="0" type="line"/>
      <point x="418" y="0" type="line"/>
      <point x="418" y="71" type="line"/>
      <point x="415" y="71" type="line" smooth="yes"/>
      <point x="389" y="71"/>
      <point x="374" y="73"/>
    </contour>
    <contour>
      <point x="423" y="513" type="line"/>
      <point x="423" y="433" type="line"/>
      <point x="924" y="433" type="line"/>
      <point x="924" y="513" type="line"/>
    </contour>
    <contour>
      <point x="796" y="79" type="curve" smooth="yes"/>
      <point x="796.0" y="584" type="line" smooth="yes"/>
      <point x="796" y="637.0"/>
      <point x="815.0" y="662.0"/>
      <point x="862" y="662" type="curve" smooth="yes"/>
      <point x="892" y="662"/>
      <point x="923" y="650"/>
      <point x="930" y="648" type="curve"/>
      <point x="930" y="735" type="line"/>
      <point x="912" y="741"/>
      <point x="865" y="748"/>
      <point x="806" y="748" type="curve" smooth="yes"/>
      <point x="636.0" y="748.0"/>
      <point x="505" y="697"/>
      <point x="505" y="541" type="curve" smooth="yes"/>
      <point x="505" y="102" type="line" smooth="yes"/>
      <point x="505" y="80"/>
      <point x="489" y="71"/>
      <point x="456" y="71" type="curve" smooth="yes"/>
      <point x="442" y="71" type="line"/>
      <point x="442" y="0" type="line"/>
      <point x="877" y="0" type="line"/>
      <point x="877" y="71" type="line"/>
      <point x="866" y="71" type="line" smooth="yes"/>
      <point x="834" y="71"/>
      <point x="796" y="73.0"/>
    </contour>
  </outline>
</glyph>
<glyph name="f_f_k" format="2">
  <advance width="1726"/>
  <outline>
    <contour>
      <point x="2" y="513" type="line"/>
      <point x="2" y="433" type="line"/>
      <point x="492" y="433" type="line"/>
      <point x="492" y="513" type="line"/>
    </contour>
    <contour>
      <point x="374" y="79" type="curve"/>
      <point x="374" y="580" type="line" smooth="yes"/>
      <point x="374" y="634"/>
      <point x="396.0" y="650.0"/>
      <point x="431" y="650" type="curve" smooth="yes"/>
      <point x="450" y="650.0"/>
      <point x="467" y="643"/>
      <point x="471" y="641" type="curve"/>
      <point x="471" y="725" type="line"/>
      <point x="456" y="731"/>
      <point x="412" y="737"/>
      <point x="361" y="737" type="curve" smooth="yes"/>
      <point x="207.0" y="737.0"/>
      <point x="84" y="686"/>
      <point x="84" y="537" type="curve" smooth="yes"/>
      <point x="84" y="102" type="line" smooth="yes"/>
      <point x="84" y="80"/>
      <point x="67" y="71"/>
      <point x="35" y="71" type="curve" smooth="yes"/>
      <point x="21" y="71" type="line"/>
      <point x="21" y="0" type="line"/>
      <point x="418" y="0" type="line"/>
      <point x="418" y="71" type="line"/>
      <point x="415" y="71" type="line" smooth="yes"/>
      <point x="389" y="71"/>
      <point x="374" y="73"/>
    </contour>
    <contour>
      <point x="423" y="513" type="line"/>
      <point x="423" y="433" type="line"/>
      <point x="879" y="433" type="line"/>
      <point x="879" y="513" type="line"/>
    </contour>
    <contour>
      <point x="1106" y="695" type="line"/>
      <point x="1045" y="723"/>
      <point x="966" y="748"/>
      <point x="839" y="748" type="curve" smooth="yes"/>
      <point x="654" y="748"/>
      <point x="505" y="697"/>
      <point x="505" y="548" type="curve" smooth="yes"/>
      <point x="505" y="79" type="line" smooth="yes"/>
      <point x="505" y="73"/>
      <point x="493" y="71"/>
      <point x="470" y="71" type="curve" smooth="yes"/>
      <point x="469" y="71" type="line"/>
      <point x="469" y="0" type="line"/>
      <point x="852" y="0" type="line"/>
      <point x="852" y="71" type="line"/>
      <point x="831" y="71" type="line" smooth="yes"/>
      <point x="815" y="71"/>
      <point x="796" y="73.0"/>
      <point x="796" y="79" type="curve" smooth="yes"/>
      <point x="796" y="577" type="line" smooth="yes"/>
      <point x="796" y="635"/>
      <point x="823" y="662"/>
      <point x="871" y="662" type="curve" smooth="yes"/>
      <point x="924" y="662"/>
      <point x="961" y="627"/>
      <point x="984" y="578" type="curve"/>
    </contour>
    <contour>
      <point x="927" y="79" type="line"/>
      <point x="927" y="73"/>
      <point x="907" y="71"/>
      <point x="895" y="71" type="curve" smooth="yes"/>
      <point x="891" y="71" type="line"/>
      <point x="891" y="0" type="line"/>
      <point x="1254" y="0" type="line"/>
      <point x="1254" y="71" type="line"/>
      <point x="1253" y="71" type="line" smooth="yes"/>
      <point x="1235" y="71"/>
      <point x="1218" y="73.0"/>
      <point x="1218" y="80" type="curve" smooth="yes"/>
      <point x="1218" y="735" type="line"/>
      <point x="894" y="735" type="line"/>
      <point x="927" y="701" type="line"/>
    </contour>
    <contour>
      <point x="1709" y="0" type="line"/>
      <point x="1709" y="71" type="line"/>
      <point x="1706" y="71" type="line"/>
      <point x="1680" y="71"/>
      <point x="1658" y="80"/>
      <point x="1640" y="110" type="curve" smooth="yes"/>
      <point x="1479" y="385" type="line"/>
      <point x="1373" y="269" type="line"/>
      <point x="1550" y="402" type="line" smooth="yes"/>
      <point x="1579" y="424"/>
      <point x="1611" y="442"/>
      <point x="1658" y="442" type="curve"/>
      <point x="1660" y="442" type="line"/>
      <point x="1660" y="513" type="line"/>
      <point x="1343" y="513" type="line"/>
      <point x="1343" y="442" type="line"/>
      <point x="1352" y="442" type="line"/>
      <point x="1380" y="442"/>
      <point x="1432" y="439"/>
      <point x="1432" y="424" type="curve"/>
      <point x="1241" y="280" type="line"/>
      <point x="1241" y="251" type="line"/>
      <point x="1338" y="79" type="line"/>
      <point x="1338" y="73"/>
      <point x="1315" y="71"/>
      <point x="1302" y="71" type="curve"/>
      <point x="1298" y="71" type="line"/>
      <point x="1298" y="0" type="line"/>
    </contour>
  </outline>
</glyph>
<glyph name="lira.alt" format="2">
  <advance width="664"/>
  <outline>
    <contour>
      <point x="631" y="0" type="line"/>
      <point x="631" y="226" type="line"/>
      <point x="520" y="226" type="line"/>
      <point x="512" y="182" type="line" smooth="yes"/>
      <point x="503" y="146"/>
      <point x="472.0" y="139.0"/>
      <point x="382" y="139" type="curve" smooth="yes"/>
      <point x="217" y="139" type="line"/>
      <point x="161" y="100" type="line"/>
      <point x="331.55239295308087" y="138.8979141822816"/>
      <point x="368" y="203"/>
      <point x="368" y="274" type="curve" smooth="yes"/>
      <point x="368.0" y="364.6642066420664"/>
      <point x="319" y="463"/>
      <point x="319" y="547" type="curve" smooth="yes"/>
      <point x="319.0" y="599.0"/>
      <point x="340.6470588235294" y="626.0"/>
      <point x="383" y="626" type="curve" smooth="yes"/>
      <point x="408.6" y="626.0"/>
      <point x="434.7281598753003" y="614.3851068433246"/>
      <point x="447" y="597" type="curve"/>
      <point x="478" y="604"/>
      <point x="478" y="632"/>
      <point x="417" y="633" type="curve"/>
      <point x="417" y="548" type="line"/>
      <point x="618" y="548" type="line"/>
      <point x="618" y="668" type="line"/>
      <point x="582" y="690"/>
      <point x="496" y="720"/>
      <point x="366" y="720" type="curve" smooth="yes"/>
      <point x="162" y="720"/>
      <point x="56" y="644"/>
      <point x="56" y="533" type="curve" smooth="yes"/>
      <point x="56.0" y="407.56747404844293"/>
      <point x="164.0" y="347.3598615916955"/>
      <point x="164" y="243" type="curve" smooth="yes"/>
      <point x="164.0" y="185.47540983606558"/>
      <point x="113.962800515613" y="142.99150881334646"/>
      <point x="22" y="122" type="curve"/>
      <point x="22" y="0" type="line"/>
    </contour>
    <contour>
      <point x="20" y="493" type="line"/>
      <point x="20" y="415" type="line"/>
      <point x="527" y="415" type="line"/>
      <point x="527" y="493" type="line"/>
    </contour>
    <contour>
      <point x="20" y="351" type="line"/>
      <point x="20" y="273" type="line"/>
      <point x="527" y="273" type="line"/>
      <point x="527" y="351" type="line"/>
    </contour>
  </outline>
</glyph>
<glyph name="one.oldtab" format="2">
  <advance width="664"/>
  <outline>
    <contour>
      <point x="509" y="120" type="curve" smooth="yes"/>
      <point x="509" y="548" type="line"/>
      <point x="280" y="548" type="line"/>
      <point x="239.44084281553245" y="499.52686092588027"/>
      <point x="185.5528351654578" y="471.9736857646218"/>
      <point x="58" y="471" type="curve"/>
      <point x="58" y="341" type="line"/>
      <point x="162.94401753112277" y="340.0282961339711"/>
      <point x="227" y="381"/>
      <point x="264" y="475" type="curve"/>
      <point x="250" y="488"/>
      <point x="256" y="477"/>
      <point x="239" y="468" type="curve"/>
      <point x="239" y="120" type="line" smooth="yes"/>
      <point x="239" y="83"/>
      <point x="180" y="76"/>
      <point x="111" y="76" type="curve" smooth="yes"/>
      <point x="70" y="76" type="line"/>
      <point x="70" y="0" type="line"/>
      <point x="661" y="0" type="line"/>
      <point x="661" y="76" type="line"/>
      <point x="638" y="76" type="line" smooth="yes"/>
      <point x="563" y="76"/>
      <point x="509" y="83"/>
    </contour>
  </outline>
</glyph>
<glyph name="six.oldtab" format="2">
  <advance width="664"/>
  <outline>
    <contour>
      <point x="576" y="655" type="line"/>
      <point x="401.7234400239049" y="619.3525218230715"/>
      <point x="285.0" y="494.0"/>
      <point x="285" y="287" type="curve" smooth="yes"/>
      <point x="285.0" y="114.0"/>
      <point x="301.96153846153845" y="75.0"/>
      <point x="334" y="75" type="curve" smooth="yes"/>
      <point x="363.8181818181818" y="75.0"/>
      <point x="375.0" y="116.0"/>
      <point x="375" y="229" type="curve" smooth="yes"/>
      <point x="375.0" y="313.0"/>
      <point x="369.3529411764706" y="368.0"/>
      <point x="327" y="368" type="curve" smooth="yes"/>
      <point x="293.22093023255815" y="368.0"/>
      <point x="272.76322525666944" y="333.5754383912693"/>
      <point x="244" y="282" type="curve"/>
      <point x="239" y="353" type="line"/>
      <point x="257.95379970389325" y="399.8857150569991"/>
      <point x="303.84883720930236" y="453.0"/>
      <point x="408" y="453" type="curve" smooth="yes"/>
      <point x="548.2175732217573" y="453.0"/>
      <point x="644.0" y="380.0"/>
      <point x="644" y="246" type="curve" smooth="yes"/>
      <point x="644.0" y="86.0"/>
      <point x="524.1901639344262" y="-10.0"/>
      <point x="342" y="-10" type="curve" smooth="yes"/>
      <point x="146.81846153846155" y="-10.0"/>
      <point x="20.0" y="84.00000000000003"/>
      <point x="20" y="295" type="curve" smooth="yes"/>
      <point x="20.0" y="513.0"/>
      <point x="218.86984024220823" y="702.2077600269121"/>
      <point x="559" y="740" type="curve"/>
    </contour>
  </outline>
</glyph>
<glyph name="three.midprop" format="2">
  <advance width="712"/>
  <outline>
    <contour>
      <point x="297" y="3" type="curve" smooth="yes"/>
      <point x="374.68333333333334" y="3.0"/>
      <point x="415.0" y="44.0"/>
      <point x="415" y="121" type="curve" smooth="yes"/>
      <point x="415.0" y="190.0"/>
      <point x="384.3382352941177" y="241"/>
      <point x="276" y="241" type="curve" smooth="yes"/>
      <point x="215" y="241" type="line"/>
      <point x="215" y="326" type="line"/>
      <point x="261" y="326" type="line" smooth="yes"/>
      <point x="362.136690647482" y="326"/>
      <point x="403.0" y="363.0"/>
      <point x="403" y="448" type="curve" smooth="yes"/>
      <point x="403.0" y="506.0"/>
      <point x="374.875" y="529.0"/>
      <point x="328" y="529" type="curve" smooth="yes"/>
      <point x="288.609756097561" y="529.0"/>
      <point x="259.18236799729596" y="512.273551995944"/>
      <point x="243" y="488" type="curve"/>
      <point x="238" y="496"/>
      <point x="238" y="542"/>
      <point x="276" y="545" type="curve"/>
      <point x="276" y="424" type="line"/>
      <point x="72" y="424" type="line"/>
      <point x="72" y="548" type="line"/>
      <point x="126.38488053161115" y="586.2708418555782"/>
      <point x="222.58510638297872" y="618.0"/>
      <point x="357" y="618" type="curve" smooth="yes"/>
      <point x="520.6146179401993" y="618.0"/>
      <point x="661.0" y="566.0"/>
      <point x="661" y="451" type="curve" smooth="yes"/>
      <point x="661.0" y="330.0"/>
      <point x="486.6692307692308" y="277.0"/>
      <point x="268" y="277" type="curve"/>
      <point x="289" y="295" type="line"/>
      <point x="569.1439588688945" y="295.0"/>
      <point x="681.0" y="226.0"/>
      <point x="681" y="114" type="curve" smooth="yes"/>
      <point x="681.0" y="-19.0"/>
      <point x="530.665671641791" y="-90.0"/>
      <point x="343" y="-90" type="curve" smooth="yes"/>
      <point x="148.8195718654434" y="-90.0"/>
      <point x="68" y="-11"/>
      <point x="14" y="82" type="curve"/>
      <point x="104" y="139" type="line"/>
      <point x="145.23148420375844" y="59.55396946105077"/>
      <point x="205.04712041884818" y="3.0"/>
    </contour>
  </outline>
</glyph>
